PathFileType	3	(X/Y/Z)	walking_1__fused_aligned.trc
DataRate	CameraRate	NumFrames	NumMarkers	Units	OrigDataRate	OrigDataStartFrame	OrigNumFrames
100.0	100.0	7	19	mm	100.0	5342	6105
Frame#	Time	pelvis			neck			head			hip_left			hip_right			knee_left			knee_right			ankle_left			ankle_right			heel_left			heel_right			toe_left			toe_right			shoulder_left			shoulder_right			elbow_left			elbow_right			wrist_left			wrist_right			
		X1	Y1	Z1	X2	Y2	Z2	X3	Y3	Z3	X4	Y4	Z4	X5	Y5	Z5	X6	Y6	Z6	X7	Y7	Z7	X8	Y8	Z8	X9	Y9	Z9	X10	Y10	Z10	X11	Y11	Z11	X12	Y12	Z12	X13	Y13	Z13	X14	Y14	Z14	X15	Y15	Z15	X16	Y16	Z16	X17	Y17	Z17	X18	Y18	Z18	X19	Y19	Z19	
5342	53.41000	57.649210	931.410802	141.388276	26.300596	1501.693969	216.763860	6.515156	1630.738203	338.938135	135.941486	934.380875	142.585229	-20.643271	928.440730	140.191381	150.194841	487.076976	109.708241	-61.943373	543.564612	371.865030	131.876502	142.968083	-106.174609	-80.844118	128.068117	390.271590	125.461768	112.868757	-153.983736	-80.174900	74.349141	362.610854	137.457178	25.428272	32.426738	-88.969023	90.070080	587.208290	212.322848	1454.178747	220.298031	-139.303380	1428.270610	149.015257	303.567802	1172.506523	248.473640	-179.053722	1139.036425	83.186722	303.870303	946.303140	398.650480	-249.992988	867.883026	75.175725
5343	53.42000	55.284362	931.391489	142.069745	23.755600	1501.741400	217.194055	4.209551	1630.726720	339.399435	133.606733	934.240179	143.131147	-23.038140	928.542803	141.008373	149.416866	487.408896	113.307255	-63.254488	542.210801	370.045242	130.736217	146.950175	-108.956776	-82.090733	124.960841	391.672746	124.188233	117.925452	-157.354357	-81.533139	70.766948	364.309113	136.405184	26.072630	26.619469	-89.632621	88.206304	589.731772	209.810948	1454.416797	220.410883	-141.954170	1428.156860	150.043366	300.898226	1172.776421	248.496997	-181.694487	1138.901353	84.424539	300.490132	946.969832	398.929480	-251.337164	868.298117	76.939923
5344	53.43000	52.919514	931.372176	142.751213	21.210603	1501.788831	217.624250	1.903947	1630.715238	339.860735	131.271980	934.099483	143.677065	-25.433010	928.644876	141.825365	148.638891	487.740815	116.906269	-64.565603	540.856989	368.225454	129.595932	150.932266	-111.738944	-83.337348	121.853565	393.073903	122.914698	122.982147	-160.724979	-82.891378	67.184755	366.007372	135.353191	26.716987	20.812200	-90.296219	86.342527	592.255254	207.299049	1454.654848	220.523735	-144.604959	1428.043110	151.071474	298.228650	1173.046319	248.520355	-184.335251	1138.766281	85.662357	297.109961	947.636524	399.208480	-252.681340	868.713208	78.704121
5345	53.44000	50.554666	931.352863	143.432682	18.665606	1501.836262	218.054444	-0.401658	1630.703755	340.322035	128.937227	933.958787	144.222983	-27.827880	928.746949	142.642357	147.860917	488.072735	120.505282	-65.876719	539.503178	366.405666	128.455646	154.914358	-114.521112	-84.583964	118.746289	394.475060	121.641162	128.038842	-164.095600	-84.249617	63.602563	367.705630	134.301198	27.361345	15.004932	-90.959817	84.478751	594.778736	204.787149	1454.892898	220.636586	-147.255749	1427.929360	152.099583	295.559074	1173.316217	248.543712	-186.976016	1138.631210	86.900175	293.729790	948.303215	399.487480	-254.025516	869.128299	80.468319
5346	53.45000	48.189818	931.333550	144.114150	16.120610	1501.883693	218.484639	-2.707263	1630.692272	340.783334	126.602473	933.818091	144.768901	-30.222750	928.849022	143.459349	147.082942	488.404654	124.104296	-67.187834	538.149366	364.585879	127.315361	158.896450	-117.303280	-85.830579	115.639013	395.876217	120.367627	133.095537	-167.466222	-85.607856	60.020370	369.403889	133.249205	28.005703	9.197663	-91.623415	82.614975	597.302218	202.275250	1455.130949	220.749438	-149.906538	1427.815611	153.127691	292.889498	1173.586115	248.567069	-189.616781	1138.496138	88.137992	290.349619	948.969907	399.766480	-255.369692	869.543391	82.232517
5347	53.46000	45.824970	931.314237	144.795618	13.575613	1501.931124	218.914834	-5.012868	1630.680790	341.244634	124.267720	933.677395	145.314819	-32.617619	928.951094	144.276341	146.304967	488.736574	127.703310	-68.498949	536.795555	362.766091	126.175076	162.878542	-120.085448	-87.077195	112.531738	397.277373	119.094091	138.152232	-170.836843	-86.966095	56.438177	371.102148	132.197211	28.650061	3.390394	-92.287014	80.751198	599.825700	199.763351	1455.368999	220.862290	-152.557328	1427.701861	154.155800	290.219922	1173.856013	248.590427	-192.257545	1138.361066	89.375810	286.969448	949.636598	400.045480	-256.713868	869.958482	83.996715
5348	53.47000	43.460122	931.294924	145.477087	11.030616	1501.978554	219.345028	-7.318473	1630.669307	341.705934	121.932967	933.536699	145.860737	-35.012489	929.053167	145.093333	145.526992	489.068493	131.302324	-69.810064	535.441743	360.946303	125.034791	166.860633	-122.867616	-88.323810	109.424462	398.678530	117.820556	143.208927	-174.207465	-88.324334	52.855984	372.800407	131.145218	29.294418	-2.416875	-92.950612	78.887422	602.349182	197.251451	1455.607050	220.975141	-155.208117	1427.588111	155.183908	287.550346	1174.125911	248.613784	-194.898310	1138.225994	90.613627	283.589277	950.303290	400.324480	-258.058044	870.373573	85.760913
